<svg xmlns="http://www.w3.org/2000/svg" viewBox="0 0 32 32">
  <path fill="#FF385C" d="M16 1c2.008 0 3.463.963 4.751 3.269l.533 1.025c1.954 3.83 6.114 12.54 7.1 14.836l.145.353c.667 1.591.91 2.472.96 3.396l.011.315c0 4.717-3.626 8.806-8.5 8.806-3.23 0-6.16-1.802-7.5-4.595-1.34 2.793-4.27 4.595-7.5 4.595-4.874 0-8.5-4.089-8.5-8.806 0-.924.243-1.805.91-3.396l.145-.353c.986-2.296 5.146-11.006 7.1-14.836l.533-1.025C8.037 1.963 9.492 1 11.5 1h4.5zm0 2.25c-1.168 0-2.128.537-3.084 2.235l-.478.919c-1.92 3.766-6.05 12.417-7.009 14.653l-.133.325c-.562 1.343-.796 2.052-.796 2.812 0 3.473 2.66 6.556 6.25 6.556 2.673 0 5.093-1.637 6.079-4.116l.171-.466.5-.168c.45-.152.95-.152 1.4 0l.5.168.171.466c.986 2.479 3.406 4.116 6.079 4.116 3.59 0 6.25-3.083 6.25-6.556 0-.76-.234-1.469-.796-2.812l-.133-.325c-.959-2.236-5.089-10.887-7.009-14.653l-.478-.919C18.128 3.787 17.168 3.25 16 3.25zm0 13c2.485 0 4.5 2.015 4.5 4.5s-2.015 4.5-4.5 4.5-4.5-2.015-4.5-4.5 2.015-4.5 4.5-4.5zm0 2.25c-1.243 0-2.25 1.007-2.25 2.25s1.007 2.25 2.25 2.25 2.25-1.007 2.25-2.25-1.007-2.25-2.25-2.25z" />
</svg>
